<?xml version="1.0" encoding="utf-8"?>
<!-- Generator: Adobe Illustrator 24.2.3, SVG Export Plug-In . SVG Version: 6.00 Build 0)  -->
<svg version="1.1" id="Layer_1" xmlns="http://www.w3.org/2000/svg" xmlns:xlink="http://www.w3.org/1999/xlink" x="0px" y="0px"
	 viewBox="0 0 1000 1000" style="enable-background:new 0 0 1000 1000;" xml:space="preserve">
<style type="text/css">
	.st0{fill:#FFFFFF;}
	.st1{fill:url(#SVGID_1_);}
	.st2{fill:url(#SVGID_2_);}
	.st3{fill:url(#SVGID_3_);}
	.st4{fill:url(#SVGID_4_);}
	.st5{fill:url(#SVGID_5_);}
	.st6{fill:url(#SVGID_6_);}
	.st7{fill:url(#SVGID_7_);}
	.st8{fill:url(#SVGID_8_);}
	.st9{fill:url(#SVGID_9_);}
	.st10{fill:url(#SVGID_10_);}
	.st11{fill:url(#SVGID_11_);}
	.st12{fill:url(#SVGID_12_);}
	.st13{fill:url(#SVGID_13_);}
	.st14{fill:url(#SVGID_14_);}
	.st15{fill:url(#SVGID_15_);}
	.st16{fill:url(#SVGID_16_);}
	.st17{fill:url(#SVGID_17_);}
	.st18{fill:url(#SVGID_18_);}
</style>
<g>
	<g>
		<g>
			<path d="M371.6,548.75l-90.69,136.72L86.59,334.34c-4.95-8.95,1.58-19.92,11.81-19.82l114.43,1.09
				c17.15,0.16,32.9,9.48,41.31,24.42L371.6,548.75z"/>
			<path d="M719.07,685.44v0.04H554.32c-11.26,0-21.78-5.64-28.01-15.03l-26.3-39.63l-26.26,39.61
				c-6.23,9.39-16.75,15.04-28.02,15.04H280.91l202.64-305.27c7.81-11.77,25.1-11.77,32.91,0l163.71,246.62L719.07,685.44z"/>
		</g>
		<path d="M628.4,548.75l90.69,136.72l194.32-351.13c4.95-8.95-1.58-19.92-11.81-19.82l-114.43,1.09
			c-17.15,0.16-32.9,9.48-41.31,24.42L628.4,548.75z"/>
	</g>
</g>
</svg>
